<svg version="1.2" xmlns="http://www.w3.org/2000/svg" viewBox="0 0 399 256" width="399" height="256"><style>*{fill:#f2f2f2}</style><path class="a" d="m190.1 7.8c1.9 1.3 3.5 3.6 5.9 3.5 2.2 0.3 3.7-1.6 5.2-2.8 1.4 1.1 2.8 2.9 4.8 2.8 2.6 0.3 4.4-2 6.3-3.4-0.7 2.8-2 6.3-5.3 6.6-2.3 0.5-4-1.4-5.8-2.5-2.1 1.5-4.7 3.6-7.4 2-2.4-1.1-3-3.9-3.7-6.2z"/><path class="a" d="m163.6 44c-0.5-13.1 9-25.6 21.6-29-6.8 5.9-12.3 13.8-13.8 22.8-2.1 10.2 0.7 21 6.8 29.3-8.1-4.8-13.4-13.7-14.6-23.1z"/><path class="a" d="m217 15c11.8 3 20.7 14 21.8 26 0.3 10.5-5.9 20.7-14.7 26.3 6.5-8.9 9.3-20.6 6.6-31.4-2.1-8.3-7.2-15.6-13.7-20.9z"/><path class="a" d="m196.4 16.8q2.5-0.6 4.8-1.3 2.3 0.7 4.7 1.3c-0.2 16.7-1.3 33.4-1.4 50.1 15.8-10.7 20.5-34.2 10-50.1 5.7 5.7 9.7 13.2 10.5 21.3 0.7 9.1-2 18.7-8.4 25.5-2.8 3.3-6.3 5.8-9.9 8.3 4.1 1.5 8.4 1.8 12.7 2.2-4.7 1.7-9.9 1.3-14.7 0.5-1.2 1.6-2.4 3.2-3.6 4.9-1.1-1.7-2.2-3.3-3.3-4.9-5 1-10.2 0.9-15.1-0.4 4.4-0.6 8.8-0.7 12.9-2.3-8.3-5.4-15.5-13.2-17.5-23.1-2.9-11.4 1.5-23.6 9.6-31.9-10 16-5.7 39.4 10.2 49.9-0.3-16.7-1.1-33.3-1.5-50z"/><path class="a" d="m253.4 89.1c1.4-3.5 5-3.4 8.1-2.5 1.1 3.2-4 3.6-5.9 5q0.7 2 1.3 4-2.1 0.2-4.1 0.3c-1.4 1.8-2.4 3.8-3.2 5.9q-0.5-2.4-1-4.9-1.5 1.6-3.1 3.2c-0.7 2-1.1 4.2-2.7 5.7-1.5 0.8-3.3 1-5 1.2 1.9-1.4 3.8-2.7 5.7-4.1-0.8-0.5-2.3-1.4-3.1-1.8q1.4-2.3 2.8-4.6c3.2 3.5 4.5-3.5 8-1 2-3.1 4.6-5.7 7.4-7.9-1.3 0.4-3.9 1.2-5.2 1.5z"/><path class="a" d="m186.9 90.4q1.9 0.8 3.7 1.6c-1.3 3.4-5 4.6-7.4 7 0.6 0.5 1.7 1.4 2.3 1.9 0.7 5.9-4.3 14.3-11.1 11.4-4.2-4.7-0.5-11.8 2.5-16.3-0.1 4.2-5.1 8.8-1.4 12.4 3.4 1.2 6.8-0.4 8.8-3.2-1-1.2-3.5-2-2.8-3.9 0.5-2.4 2.1-4.3 3.7-6.1 0.4-1.7 1.1-3.2 1.7-4.8z"/><path class="a" d="m196.8 97c0.5-2.6 1.1-5.3 2.5-7.6-0.1 3-0.3 6.1-0.4 9.2 1.9 0 3.7-0.6 5.5-1.3 1.3-1.1 2.6-2.2 4-3.2-0.7 4.3-5.2 5.4-7.9 8-0.6 0-1.6 0.1-2.2 0.2-0.8 1.4-1.5 3-2.6 4.2-1.2 0.9-2.7 0.1-4 0 0.1-0.8 0.2-2.4 0.2-3.2q1 1 1.9 1.9 1.4-1.2 2.8-2.4 0.1-2.9 0.2-5.8z"/><path class="a" d="m193.9 104.2c-2.4-4.3-0.5-9.6 1.5-13.7 0 4.6-0.4 9.2-1.5 13.7z"/><path class="a" d="m223.1 103.1c0.9-5.1 4.5-9.5 9.3-11.4q-0.5 1.9-1.2 3.9c-2.5 0.2-4.3 2.1-5.9 4 3.9 1.5 2.4 6 1.1 8.8-1.2 3-4 5.4-7.3 5.4-1.9-0.3-4.1-1.5-4.1-3.7-0.7-5 2.1-9.5 4.5-13.6 0 3.8-3 6.9-2.9 10.7 0.5 1.9 2.6 2.7 4.4 2.3 2.6 0.1 4-2.4 5.5-4.1q-1.7-1.2-3.4-2.3z"/><path class="a" d="m153.5 106.9c0.1-5-0.5-10.3 2.2-14.8 0.1 5 1 10.5-2.2 14.8z"/><path class="a" d="m167.9 106.7c0.4-4.7-0.5-10 2.2-14.3 0 4.8 1 10.3-2.2 14.3z"/><path class="a" d="m209.5 106.8c0.1-4.9-0.5-10.2 2.2-14.7 0.1 4.9 1 10.5-2.2 14.7z"/><path class="a" d="m146.6 107.7c4.9-2.8 1.7-9.3 5.1-13.1 0.7 6.6-1 15.1-7.7 18-3 1.8-6.1-0.5-7.5-3.1 0-3.8 1-7.6 3.5-10.6-0.5 2.4-1.4 4.7-1.8 7 0.9 3.8 5.8 3.4 8.4 1.8z"/><path class="a" d="m161.4 101.2c1.2-2.8 3.9-4.2 6.2-6-0.6 1.9-1.3 3.9-3.1 5.1-2.2 1.3-2.7 4-4.3 5.9-1.4 1-3.3 0.6-4.8 1 2-2 4.8-3.3 6-6z"/><path class="a" d="m238.1 96.8c0.5 4.9-2.3 11.4-8.3 10.2 1.7-1.4 3.6-2.5 5.1-4 1.3-1.9 2.1-4.2 3.2-6.2z"/><path class="a" d="m144.2 98.9q1 0.8 2 1.7c0 0.5 0.1 1.4 0.1 1.8q-0.8 1.1-1.6 2.2-1.3-1-2.5-2 1-1.8 2-3.7z"/><path class="a" d="m256.3 113.1q1-1.9 2-3.7 1 1 2.1 2.1c-0.4 1.1-0.8 2.2-1.2 3.2q-1.4-0.8-2.9-1.6z"/><path class="a" d="m160.5 116.9q1-1.9 2.1-3.7c0.3 0.4 1 1.2 1.4 1.6 0.5-0.5 1.4-1.4 1.9-1.9q1 0.9 2 1.9-1 1.5-1.9 3c-0.5-0.4-1.5-1.1-1.9-1.5-0.3 0.6-0.8 1.6-1 2.1q-1.3-0.7-2.6-1.5z"/><path class="a" d="m310.6 203c6.3-6.8 11.4-14.7 17.9-21.4-0.7 2.4-1.8 4.6-3.3 6.5-3.4 4.5-6.9 8.9-10.6 13.1 4.1 3.2 0.9 11.2-4.3 10.6-0.6 8.1-2.1 17.2-8.7 22.7-3.8 3.1-11.1 3.4-13-1.9-1.4-5.9 0.9-12 4.4-16.6-0.6 4-3.7 7.8-2.4 12.1 1.7 3 5.6 2.9 8.6 2.5 3.9-0.7 6.7-4.2 7.8-8 2.3-9.3-2-20.2 4.2-28.5-0.4 2.9-0.7 5.9-0.6 8.9zm0.8 3.9c1.8 1.1 3.4-0.3 4.1-2-1.8-0.1-5.7-1-4.1 2z"/><path class="a" d="m153.6 192.6q1.2-2.5 2.5-5 1.3 1.2 2.4 2.4c0.6 2.1-1 3.7-2 5.3-0.7-0.7-2.1-2-2.9-2.7z"/><path class="a" d="m233.8 187.7q1.3 1.5 2.8 3-1 2.4-2.2 4.7-1.6-1.5-3.3-2.9 1.3-2.4 2.7-4.8z"/><path class="a" d="m122.3 194.4c0.8-1.6 1.7-3.1 2.8-4.5 1.2 0.8 2.4 1.7 2.8 3.1-0.5 1.6-1.3 3-2 4.4q-1.9-1.5-3.6-3z"/><path class="a" d="m39.1 197.2q1.3-2.6 2.9-5.1 1.5 1.5 3 3-1.1 2.2-2.1 4.4-2-1.1-3.8-2.3z"/><path class="a" d="m156.5 195.9q1.2-1.5 2.5-3.1 1.2 1.5 2.2 3.2c-0.2 1.6-1.1 2.9-2.2 4.1-1-0.5-1.8-1.2-2.7-1.8q-1 1.5-2.1 2.9-1.5-1.2-3-2.4 1.2-2.4 2.6-4.7 1.3 0.9 2.7 1.8z"/><path class="a" d="m234 196.1q1.4-1.6 2.9-3.2c0.7 1.4 2.4 2.8 1.5 4.6-0.6 1-1.4 1.9-2.1 2.9-0.5-0.6-1.7-1.8-2.3-2.4q-1 1.6-2 3.2-1.7-1.1-3.3-2.3 1.4-2.6 3.1-5c0.5 0.5 1.6 1.7 2.2 2.2z"/><path class="a" d="m284.1 197.3c3.9 1.2 7.5-0.6 10.9-2.3-2.2 4.1-6.4 6.7-10.9 7.2-3.2-1.2-6.4-0.8-9.4 0.7 2.2-2.9 5.2-6.6 9.4-5.6z"/><path class="a" d="m250.5 202.9q1.3-2.7 2.6-5.2 1.7 1.5 3.3 3.2-1.1 2.1-2.4 4.2-1.8-1.1-3.5-2.2z"/><path class="a" d="m108.2 219.3c1.5-6.9-0.8-14.6 3.5-20.6-0.7 6.8 1.3 14.8-3.5 20.6z"/><path class="a" d="m368.3 221.8c1.3-6.9-0.8-14.7 3.4-20.8-0.7 6.9 1.2 14.9-3.5 20.7z"/><path class="a" d="m90.4 216c0.5-4.6 1-9.3 3.4-13.4 0.1 5.5-1.4 10.9-1.5 16.4-0.2 1.8 1.6 3.7 3.5 3.2 2-0.7 3.7-1.9 5.6-2.8 0.9-0.8 1.8-1.5 2.9-2.1 0.4-0.6 1.1-1.7 1.5-2.3 0.4 3.6-2.2 6-4.8 7.9-2.8 0-4.1 2.5-6.1 4-1.4 0.7-3.3 0.5-4.1-1-1.7-3.1-0.7-6.7-0.4-9.9z"/><path class="a" d="m43.7 210.5c2.4-2.4 4.4-7 8.4-6.4 2.3 1.6 0.6 4.6-0.6 6.3-1.7 2.7-4.5 4.1-7.4 4.9q-1.9-1-3.7-1.9c-2.4 3.8-4.5 7.7-6.4 11.7-2.4 0.9-4.8 1.7-7.3 2.3 2.5-2.7 6.2-4.2 8.3-7.4-1.3-0.4-4.1 0.2-3.9-1.9 0.3-2.5 1.9-4.4 3.1-6.5 1.5 0.7 2.7 1.7 3.8 3q1.7-2.8 3.3-5.6 1.2 0.7 2.4 1.5zm1.5 0.2c2.6-0.5 5.1-1.4 6.8-3.5-3.1-0.8-5.3 1-6.8 3.5z"/><path class="a" d="m264 214.5c1.9-3.5 4.3-6.8 7-9.7 2 2.3 2.7 5.7 0.1 7.9-1.4 0.4-3.4-0.3-4.5 1-2.2 2.7-3.5 6-5 9.2-1.4 3.4-5.6 3.7-8.8 4.5 2.9-2.4 6.2-4.2 8.4-7.2-0.9-0.3-2.8-0.8-3.8-1 0.1-3.1 1.7-6.1 4.4-7.7q1.1 1.5 2.2 3z"/><path class="a" d="m18.2 213.2c2.6-3.5 5.8-7.1 10.2-8.1q-0.9 2.8-2.1 5.5c-3.4-0.2-6.2 2.2-7.9 4.9-1 1.9 2.1 2.3 3 3.6 0.4 2.3-0.3 4.5-0.4 6.8q-0.8-1-1.7-2c-1.3-0.5-2.5-1-3.7-1.7-0.9-3.2 0.8-6.4 2.6-9z"/><path class="a" d="m279.3 226.4c1-6.8-1-14.6 3.5-20.5-0.8 6.8 1.2 14.7-3.5 20.5z"/><path class="a" d="m330.5 222.1c0.1-7.6 6-14.8 13.1-17-0.6 1.8-1.1 3.6-2.1 5.2-3.8 0.5-7.1 3-8.4 6.6q1.8 0.9 3.6 2c0.1 5.4-1.4 11.4-5.5 15.2-2.5 2.5-6.5 4-9.9 2.4-2.6-0.9-3.6-3.9-3.5-6.5-0.2-6.1 3.3-11.5 5.6-16.9 0.3 0.1 0.9 0.3 1.1 0.4-1.7 4.4-4.2 8.7-4.7 13.6 0.6 4.1 5.9 5.1 9.1 3.5 3-0.9 4.9-3.5 6.2-6.2q-2.3-1.1-4.6-2.3z"/><path class="a" d="m385.1 214c-0.1-3 1.1-5.7 2.7-8.2-0.7 7 1 14.8-3.4 20.8 0-4.2 0.8-8.4 0.7-12.6z"/><path class="a" d="m122.8 207.5c2.6 0.1 5.3 0.7 7.9 0-2 2.8-3.9 5.6-5.8 8.4-1.4 2.3-4.2 3-6.1 4.9-1.4 1.7-2.2 4-4 5.4-2.1 1-4.5 1-6.8 1 3.1-2.6 7.7-3.8 9.4-7.8 1.9-4 6.9-4.7 9.1-8.5q-1.8-0.6-3.7-1.3-1.6 1.3-3.3 2.6c0.8-1.7 1.5-3.8 3.3-4.7z"/><path class="a" d="m162.8 209.3c0.2 0.1 0.6 0.1 0.8 0.2-0.7 3.5-3.7 5.3-6.7 6.9-0.9 6.2-2.8 12.6-7.7 16.9-2.1 1.9-4.9 2.6-7.5 3.3-3.1-0.6-6.1-2.3-6.9-5.5-0.8-5.5 1.3-11.1 4.7-15.4-1.1 4.4-4.2 9-1.6 13.4 5.1 3.1 12.2 1.1 15.1-4.1 2.1-3 1.9-6.8 1.8-10.3 0.3-0.5 0.6-1.4 0.8-1.8 0.9-0.1 2.5-0.1 3.3-0.1 1.3-1.2 2.6-2.3 3.9-3.5z"/><path class="a" d="m232.8 213c3.5 0.5 5.9-2.3 8.5-4.1-0.6 3.8-3.6 5.9-6.7 7.5-1 8.7-5.5 19-15.3 20.2-2.9-0.6-5.9-2-6.7-5-1.1-5.6 1-11.5 4.5-15.8-0.9 4.2-4.8 9.4-1.2 13.3 4.8 3.5 12.2 0.7 14.9-4.4 2.2-3.5 1.6-7.7 2-11.7z"/><path class="a" d="m87 210.9c0.3-0.2 1-0.6 1.3-0.7-0.5 5.4-0.2 11.2-2.7 16.3-2.1 4.4-5.6 8.8-10.7 9.7-3.6 0.9-7.9-1.3-8.5-5.1-0.8-5.3 1-11 4.5-15.1-0.8 4.1-4.6 8.8-1.5 12.7 5.6 5 16.1-0.2 16-7.7-0.1-3.4 0.5-6.8 1.6-10.1z"/><path class="a" d="m199.5 209.8c-0.6 2-0.9 4.1-2.1 5.8-1.6 1.7-4.5 2-5.3 4.5-1 2-1.5 4.4-3.3 5.9-2.1 1.1-4.5 1.1-6.8 1.2 2.2-1.9 4.7-3.3 7-5.2 1.8-1.9 2.3-4.9 4.1-6.9 2.2-1.6 4.6-3.1 6.4-5.3z"/><path class="a" d="m178.6 219c0-2.7 1.3-5.4 3.4-7.1 3.2 0 3.2 3.8 2.6 6-0.9 3.1-1.9 7.1-5.4 8.1-1.7 0.6-3.5 0.9-5.3 1.3 2.8-2.2 6-4 8.4-6.6q-1.9-0.8-3.7-1.7z"/><path class="a" d="m207.2 212.1c1.7-0.7 3.5 1.1 3.3 2.8 0 3.7-1.3 7.5-3.8 10.2-2.1 1.2-4.6 1.7-7 2.3 2.7-2.3 5.7-4.2 8.2-6.7q-2.1-0.8-3.8-2c0.3-2.4 1.5-4.7 3.1-6.6z"/><path class="a" d="m377.9 211.1c1.6 1.7 3.9 3.3 3.8 5.9 0.3 5.3-4 10.3-9.4 10.4 2.3-2 4.7-4 6.7-6.3q-1.8-2.3-3.8-4.4 1.3-2.8 2.7-5.6z"/><path class="a" d="m2.7 232.2c-0.9-7.2 2.8-14 6.5-19.9-0.6 6-6.9 11.9-3.2 18 4.9 2.3 11.4 0.2 13.2-5.1q0.6 1 1.2 2.1c-1.9 5-5.8 9.5-11.4 10.1-2.8-0.5-5.9-2-6.3-5.2z"/><path class="a" d="m60.6 218.7c1.1-1.9 1.3-4.6 3.4-5.9-0.4 3.8-1.7 7.5-3.5 10.8-1.6 3.2-5.8 3.3-8.9 3.7 3-2.8 7.4-4.5 9-8.6z"/><path class="a" d="m170.9 218.8c1.1-2 1.5-4.7 3.7-6.1-0.7 3.9-2 7.7-3.8 11.2-1.8 3-5.7 3-8.8 3.4 3-2.8 7.4-4.4 8.9-8.5z"/><path class="a" d="m246.7 222.5c3.2-2.6 3.3-7.2 6.2-10-0.5 3.8-1.8 7.5-3.5 11-1.6 3.3-5.6 3.4-8.8 3.8 1.9-1.8 4.1-3.2 6.1-4.8z"/><path class="a" d="m360.1 222c2.7-2.6 2.7-7 5.6-9.4-0.5 3.8-1.9 7.5-3.5 11-1.7 3.2-5.8 3.2-9 3.7 2.1-2 4.7-3.3 6.8-5.3z"/><path class="a" d="m349.9 213.1c5.9 3 3.4 10.9-0.9 14-1.7 0.8-3.6-0.4-3.2-2.3 0.7-4.1 2.4-8 4.2-11.7zm-2 7.6c-0.1 0.9-0.5 2.8-0.6 3.7q2-0.7 4-1.6c-1.1-0.7-1.8-2.6-3.4-2.1z"/><path class="a" d="m74.4 221.2q1.4-2.8 2.8-5.4 1.7 1.5 3.3 3.1c-0.7 1.7-1.4 3.3-2.6 4.7q-1.8-1.2-3.5-2.4z"/><path class="a" d="m190.5 240.3q1.7 0.2 2.9 1.4 1.2-1.5 2.5-3c0.5 0.8 1.4 2.5 1.9 3.3-0.1 1.7-1.6 2.9-2.6 4.2-0.4-0.5-1.4-1.7-1.8-2.2q-1.1 1.5-2.2 3c-0.7-0.6-2.2-1.7-3-2.2 0.7-1.5 1.5-3.1 2.3-4.5z"/><path  d="m114 142.7h-0.2q-0.4-0.4-0.7-0.7-0.3-0.3-0.7-0.5-0.3-0.3-0.6-0.5v-0.3q0.2-0.2 0.5-0.5 0.3-0.3 0.6-0.7 0.3-0.3 0.5-0.6 0.3-0.3 0.4-0.4h0.3q0.6 0.4 0.9 0.7 0.4 0.3 0.6 0.6 0.4-0.5 0.9-1 0.5-0.5 0.8-0.7h0.1q1 0.6 1.4 1.1 0.5 0.4 0.5 0.9 0 0.4-0.5 0.9-0.5 0.6-1.4 1.2h-0.2q-0.4-0.3-0.8-0.7-0.3-0.3-0.6-0.6-0.4 0.7-1.8 1.8zm1.5-4h-0.2q-0.1-0.3-0.6-0.6-0.3-0.4-0.7-0.7-0.4-0.3-0.5-0.4v-0.2q0.4-0.4 0.8-0.9 0.4-0.4 0.7-0.7 0.4-0.3 0.5-0.4h0.1q1 0.7 1.4 1.1 0.3 0.3 0.3 0.7 0 0.3-0.4 0.8-0.4 0.5-1.4 1.3zm-13.1 29.1q-1.7 0-3-0.7-1.3-0.7-2-2.1-0.8-1.3-0.8-3.1 0-2.1 0.5-4.2 0.5-2.2 1.7-4.8l0.7 0.3q-0.7 1.5-1 2.9-0.3 1.3-0.3 2.5 0 1.5 0.4 2.5 0.5 1 1.3 1.6 0.7 0.5 1.7 0.8 1 0.2 2 0.2 1.6 0 3-0.5 1.4-0.6 2.5-1.7 1.1-1 1.7-2.5 0.5-1.1 0.8-2.4 0.3-1.4 0.4-3 0.1-0.9 0.1-1.9 0.1-0.9 0.1-2l0.4-0.1q0.3 0.1 0.6 0.2 0.4 0 0.7 0 1.1 0 2-0.5 0.9-0.5 1.5-1.5l0.2-0.1q0.3 0.2 0.5 0.2 0.3 0.1 0.5 0.1 0.5 0 0.9-0.6 0.4-0.6 0.8-1.8l0.6 0.1q-0.7 2.6-1.6 3.7-0.9 1.1-2 1.1-0.2 0-0.4 0-0.2 0-0.4-0.1-0.6 0.9-1.5 1.4-0.8 0.5-1.9 0.7 0 1.9-0.4 3.9-0.4 1.9-1.1 3.7-0.7 1.8-1.7 3.3-1 1.5-2.2 2.5-0.8 0.7-1.6 1.1-0.9 0.4-1.8 0.6-0.9 0.2-1.9 0.2zm18.2-6.9l-0.1-0.6q0.6-0.3 1.3-0.8 0.7-0.5 1.5-1.1 0.7-0.6 1.4-1.2 0.7-0.6 1.2-1.1 0.5-0.6 0.8-0.9 0.3-0.3 0.6-0.8 0.3-0.6 0.6-1.2 0.3-0.7 0.6-1.4 0.3-0.7 0.5-1.5l0.7 0.1q-0.4 1.8-0.9 3.3-0.5 1.5-1 2.6-0.5 1.1-1.1 1.9-0.5 0.8-1 1.2-0.3 0.1-0.6 0.2-0.4 0.2-0.8 0.3-0.5 0.1-1 0.3-0.6 0.1-1.3 0.3-0.6 0.2-1.4 0.4zm10.9 0.7l-0.1-0.5q1-0.6 1.9-1.3 0.9-0.6 1.6-1.2 1.3-1 2-1.8 0.8-0.9 0.8-1.4 0-0.1 0-0.1 0-0.1-0.1-0.1-0.4 0.3-0.8 0.4-0.3 0.1-0.7 0.1-0.6 0-1-0.2-0.5-0.2-0.8-0.6-0.2-0.4-0.2-0.9 0-0.4 0.1-0.8 0.1-0.5 0.3-0.9l0.8-1.5q0.5-1.1 1.5-1.1 0.7 0 1.2 0.4 0.4 0.4 0.6 1.3 0.3 0.8 0.3 2.1 0 0.7-0.1 1.4-0.1 0.8-0.4 1.6-0.2 0.8-0.7 1.5-0.4 0.8-1 1.5-0.2 0.2-0.8 0.5-0.5 0.2-1.3 0.5-0.7 0.3-1.5 0.6-0.9 0.3-1.6 0.5zm8.2-0.7l-0.1-0.6q0.6-0.3 1.3-0.9 0.8-0.5 1.6-1.1 0.8-0.6 1.4-1.1 0.7-0.5 1-0.9 0.3-0.2 0.5-0.5 0.2-0.2 0.3-0.5 0.3-0.3 0.4-0.7 0.7-1.3 1.4-1.9 0.6-0.7 1.5-1 0.5-0.2 0.8-0.3 0.3-0.1 0.4-0.1 0.4 0 0.4 0.6 0 0.5-0.4 0.9-0.3 0.3-0.7 0.5-0.8 0.3-1.2 0.5-0.5 0.3-0.8 0.6-0.3 0.3-0.6 0.8-0.3 0.5-0.6 1.4-0.5 1-0.9 1.7-0.3 0.6-0.7 1-0.3 0.2-0.7 0.4-0.4 0.1-0.9 0.3-1 0.3-2 0.6-1 0.2-1.4 0.3zm8.9 2.2h-0.2q-0.3-0.3-0.6-0.6-0.4-0.3-0.7-0.6-0.3-0.3-0.6-0.5v-0.2q0.1-0.2 0.4-0.6 0.3-0.3 0.6-0.6 0.3-0.4 0.6-0.6 0.2-0.3 0.4-0.4h0.2q0.6 0.4 1 0.7 0.4 0.3 0.6 0.6 0.2-0.4 0.6-0.7 0.3-0.4 0.6-0.7 0.3-0.3 0.4-0.3h0.2q0.9 0.5 1.3 1 0.5 0.4 0.5 0.9 0 0.4-0.5 1-0.4 0.5-1.3 1.2h-0.3q-0.2-0.3-0.5-0.5-0.2-0.2-0.5-0.5-0.2-0.2-0.4-0.3-0.3 0.7-1.8 1.7zm1.7 3.3h-0.2q-0.1-0.2-0.6-0.5-0.3-0.4-0.7-0.7-0.4-0.3-0.5-0.4v-0.2q0.4-0.4 0.8-0.9 0.4-0.4 0.7-0.7 0.4-0.3 0.5-0.4h0.2q0.8 0.6 1.2 1 0.4 0.5 0.4 0.8 0 0.4-0.3 0.8-0.4 0.5-1.5 1.2zm-3.9-10.9q-0.3 0-0.3-0.4 0-0.1 0-0.2 0-0.2 0.1-0.4 0.1-0.2 0.4-0.6 0.2-0.4 0.5-1 0.2-0.3 0.4-0.6 0.3-0.3 0.6-0.5 0.3-0.3 0.8-0.6 0.5-0.4 1.2-0.7 0.5-0.3 0.7-0.7 0.3-0.4 0.5-1.2l0.7 0.2q-0.2 1-0.5 1.9-0.2 0.9-0.7 1.5-0.3 0.4-0.7 0.7-0.4 0.4-0.9 0.6-1 0.4-1.5 0.8-0.5 0.4-0.8 0.9-0.1 0.3-0.5 0.3zm10.5 6.1l-0.1-0.5q1-0.6 1.9-1.3 0.9-0.6 1.6-1.2 1.3-1 2-1.8 0.8-0.9 0.8-1.4 0-0.1 0-0.1 0-0.1-0.1-0.1-0.4 0.3-0.8 0.4-0.3 0.1-0.7 0.1-0.5 0-1-0.2-0.5-0.2-0.7-0.6-0.3-0.4-0.3-0.9 0-0.4 0.1-0.8 0.1-0.5 0.3-0.9l0.8-1.5q0.6-1.1 1.6-1.1 0.6 0 1.1 0.4 0.4 0.4 0.7 1.3 0.2 0.8 0.2 2.1 0 0.7-0.1 1.4-0.1 0.8-0.4 1.6-0.2 0.8-0.6 1.5-0.5 0.8-1.1 1.5-0.2 0.2-0.8 0.5-0.5 0.2-1.3 0.5-0.7 0.3-1.5 0.6-0.8 0.3-1.6 0.5zm30.2-18.9h-0.2q-0.4-0.4-0.7-0.7-0.3-0.3-0.7-0.5-0.3-0.3-0.6-0.5v-0.3q0.2-0.2 0.5-0.5 0.3-0.3 0.6-0.7 0.3-0.3 0.5-0.6 0.3-0.3 0.4-0.4h0.2q0.6 0.4 1 0.7 0.4 0.3 0.6 0.6 0.4-0.5 0.9-1 0.5-0.5 0.7-0.7h0.2q0.9 0.6 1.4 1.1 0.4 0.4 0.4 0.9 0 0.4-0.4 0.9-0.5 0.6-1.4 1.2h-0.2q-0.4-0.3-0.8-0.7-0.3-0.3-0.6-0.6-0.4 0.7-1.8 1.8zm1.5-4h-0.2q-0.1-0.3-0.6-0.6-0.4-0.4-0.7-0.7-0.4-0.3-0.5-0.4v-0.2q0.4-0.4 0.8-0.9 0.4-0.4 0.7-0.7 0.4-0.3 0.5-0.4h0.1q1 0.7 1.3 1.1 0.4 0.3 0.4 0.7 0 0.3-0.4 0.8-0.4 0.5-1.4 1.3zm-13.1 29.1q-1.7 0-3-0.7-1.3-0.7-2-2.1-0.8-1.3-0.8-3.1 0-2.1 0.5-4.2 0.5-2.2 1.7-4.8l0.7 0.3q-0.7 1.5-1 2.9-0.3 1.3-0.3 2.5 0 1.5 0.4 2.5 0.5 1 1.3 1.6 0.7 0.5 1.7 0.8 0.9 0.2 2 0.2 1.6 0 3-0.5 1.4-0.6 2.5-1.7 1.1-1 1.7-2.5 0.5-1.1 0.8-2.4 0.3-1.4 0.4-3 0.1-0.9 0.1-1.9 0.1-0.9 0.1-2l0.4-0.1q0.3 0.1 0.6 0.2 0.4 0 0.7 0 1.1 0 2-0.5 0.9-0.5 1.5-1.5l0.2-0.1q0.3 0.2 0.5 0.2 0.3 0.1 0.5 0.1 0.5 0 0.9-0.6 0.3-0.6 0.8-1.8l0.6 0.1q-0.7 2.6-1.7 3.7-0.9 1.1-1.9 1.1-0.2 0-0.4 0-0.2 0-0.4-0.1-0.6 0.9-1.5 1.4-0.8 0.5-1.9 0.7 0 1.9-0.4 3.9-0.4 1.9-1.1 3.7-0.7 1.8-1.7 3.3-1 1.5-2.2 2.5-0.8 0.7-1.6 1.1-0.9 0.4-1.8 0.6-0.9 0.2-1.9 0.2zm26.5-20.6h-0.2q-0.3-0.3-0.6-0.6-0.3-0.3-0.7-0.6-0.3-0.3-0.6-0.5v-0.2q0.2-0.2 0.4-0.6 0.3-0.3 0.6-0.7 0.3-0.3 0.6-0.6 0.3-0.2 0.4-0.3h0.2q1.1 0.6 1.4 1.1 0.4 0.4 0.4 0.8 0 0.4-0.5 1-0.4 0.5-1.4 1.2zm-8.3 13.7l-0.1-0.6q0.6-0.3 1.3-0.8 0.7-0.5 1.4-1.1 0.8-0.6 1.5-1.2 0.7-0.6 1.2-1.1 0.5-0.6 0.8-0.9 0.3-0.3 0.6-0.8 0.3-0.6 0.6-1.2 0.3-0.7 0.5-1.4 0.3-0.7 0.6-1.5l0.7 0.1q-0.4 1.8-0.9 3.3-0.5 1.5-1 2.6-0.5 1.1-1.1 1.9-0.5 0.8-1 1.2-0.3 0.1-0.6 0.2-0.4 0.2-0.8 0.3-0.5 0.1-1.1 0.3-0.5 0.1-1.2 0.3-0.6 0.2-1.4 0.4zm10.9 0.7l-0.1-0.5q0.5-0.4 1.3-0.8 0.7-0.6 1.5-1.1 0.8-0.6 1.5-1.2 0.8-0.8 1.3-1.5 0.6-0.7 0.7-1.3-0.3 0.2-0.7 0.3-0.5 0.1-1 0.1-0.5 0-1-0.2-0.4-0.2-0.7-0.6-0.2-0.3-0.2-0.8 0-0.4 0.1-0.8 0.1-0.5 0.3-0.9l0.8-1.5q0.5-1.1 1.5-1.1 0.6 0 1 0.3 0.4 0.3 0.7 1 0.3 0.6 0.3 1.6 0.5-0.2 1-0.5 0.5-0.2 1-0.6 0.2-0.2 0.4-0.2 0.2 0 0.3 0.1 0.1 0 0.1 0.2 0 0.1-0.1 0.3-0.1 0.1-0.2 0.3-0.9 1-1.4 1.5-0.5 0.5-0.8 0.7-0.2 0.1-0.3 0.2-0.1 0.9-0.4 1.8-0.2 0.9-0.7 1.7-0.4 0.8-1 1.4-0.3 0.2-0.9 0.5-0.6 0.3-1.3 0.6-0.8 0.3-1.6 0.5-0.7 0.3-1.4 0.5zm5.4-7.1q-0.2 0-0.4-0.1-0.2-0.2-0.2-0.6 0-0.6 0.4-0.9 0.4-0.3 0.8-0.3 1.3 0 2.5-0.7 1.2-0.7 2.2-2.1 0.6-0.8 1-1.3 0.4-0.6 0.7-0.8 0.3-0.2 0.7-0.3 0.2-0.3 0.5-0.7 0.3-0.4 0.5-0.7 0.3-0.3 0.5-0.5h0.3q0.2 0.6 0.4 1 0.3 0.4 0.5 0.7 0.3 0.4 0.4 0.7 0.1 0.2 0.1 0.5 0 0.3-0.2 0.8-0.2 0.5-0.5 0.9-0.4 0.4-0.8 0.7-0.3 0.3-0.7 0.3-0.3 0-0.6-0.1-0.6-0.2-1-0.4-0.5-0.1-0.8-0.1-0.1 0-0.4 0.2-0.3 0.2-0.7 0.5-0.4 0.4-0.9 1-0.7 0.8-1.4 1.3-0.7 0.5-1.4 0.8-0.7 0.2-1.5 0.2zm11.8-15.2l-0.4-0.3q0.6-1.2 1.4-2.2 0.8-0.9 1.7-0.9 0.5 0 1.6 0.2 1 0.3 2.7 0.3 1.4 0 2.6-0.3 1.2-0.3 2.1-1.1l0.3 0.3q-1 1.3-2.2 2.1-1.1 0.7-2.3 1-1.2 0.3-2.2 0.3-1.1 0-1.8-0.1-0.6-0.1-1.1-0.2-0.5-0.1-1-0.1-0.4 0-0.7 0.2-0.3 0.2-0.7 0.8zm3.6 18.4l-0.5-0.1q0.1-0.6 0.2-1.7 0.1-1.2 0.2-2.8l0.2-5.5q0-1.1 0.1-1.8 0.1-0.8 0.2-1.6 0.2-0.8 0.6-1.7 0.4-1 1-2.5l0.5 0.2q-0.2 0.5-0.3 1.6-0.1 1.2-0.2 3l-0.4 6.5q-0.1 1.5-0.5 3.1-0.4 1.6-1.1 3.3zm19.7-9.2h-0.2q-0.4-0.4-0.7-0.6-0.3-0.3-0.7-0.6-0.3-0.3-0.6-0.5v-0.2q0.2-0.3 0.5-0.6 0.3-0.3 0.6-0.7 0.3-0.3 0.5-0.6 0.3-0.2 0.4-0.3h0.3q0.5 0.3 0.9 0.6 0.4 0.3 0.6 0.6 0.3-0.3 0.6-0.6 0.3-0.4 0.6-0.7 0.3-0.3 0.5-0.4h0.1q1 0.6 1.4 1.1 0.5 0.4 0.5 0.9 0 0.4-0.5 1-0.5 0.5-1.4 1.2h-0.2q-0.4-0.4-0.8-0.7-0.3-0.4-0.6-0.7-0.4 0.8-1.8 1.8zm-4 11.9q-1.3 0-2.5-0.2-1.2-0.2-2.2-0.6-0.9-0.5-1.4-1.3-0.5-0.8-0.5-2 0-1.4 0.6-3.3l0.7 0.1q-0.1 0.1-0.1 0.3 0 0.2 0 0.4 0 1 0.5 1.6 0.5 0.6 1.5 0.9 0.9 0.2 2.1 0.3 1.2 0 2.8 0 1.6 0 3.2-0.2 1.7-0.1 3.3-0.5 1.7-0.3 3.1-0.8 1.4-0.4 2.5-1 1.3-0.6 2-1.2 0.6-0.6 1-1.2 0.4-0.6 0.7-1.2l0.5 0.1q-0.3 1.2-0.9 2.5-0.5 1.2-1.2 2.2-0.8 1.1-2.1 1.9-1.3 0.8-2.9 1.4-1.7 0.6-3.5 1-1.8 0.4-3.7 0.6-1.8 0.2-3.5 0.2zm18.1 0.5l-0.1-0.6q0.6-0.3 1.3-0.8 0.7-0.5 1.5-1.1 0.7-0.6 1.4-1.2 0.7-0.6 1.2-1.1 0.5-0.6 0.8-0.9 0.3-0.3 0.6-0.8 0.3-0.6 0.6-1.2 0.3-0.7 0.6-1.4 0.3-0.7 0.5-1.5l0.7 0.1q-0.4 1.8-0.9 3.3-0.5 1.5-1 2.6-0.5 1.1-1.1 1.9-0.5 0.8-1 1.2-0.3 0.1-0.6 0.2-0.4 0.2-0.8 0.3-0.5 0.1-1 0.3-0.6 0.1-1.3 0.3-0.6 0.2-1.4 0.4zm13.2-3.2l-0.5-0.1q0.1-0.6 0.2-1.7 0.1-1.2 0.2-2.8l0.2-5.5q0-1.1 0.1-1.8 0-0.8 0.2-1.6 0.2-0.8 0.6-1.7 0.4-1 1-2.5l0.5 0.2q-0.2 0.5-0.3 1.6-0.1 1.2-0.3 3l-0.3 6.5q-0.1 1.5-0.5 3.1-0.4 1.6-1.1 3.3zm12-10.5h-0.1q-0.4-0.3-0.7-0.6-0.3-0.3-0.6-0.6-0.3-0.3-0.7-0.5v-0.2q0.2-0.2 0.5-0.6 0.2-0.3 0.5-0.7 0.4-0.3 0.6-0.6 0.3-0.2 0.4-0.3h0.3q1 0.6 1.4 1.1 0.3 0.4 0.3 0.8 0 0.4-0.4 1-0.5 0.5-1.5 1.2zm-8.3 13.7l-0.1-0.6q0.6-0.3 1.3-0.8 0.7-0.5 1.5-1.1 0.7-0.6 1.4-1.2 0.7-0.6 1.2-1.1 0.6-0.6 0.9-0.9 0.2-0.3 0.5-0.8 0.3-0.6 0.6-1.2 0.3-0.7 0.6-1.4 0.3-0.7 0.6-1.5l0.6 0.1q-0.4 1.8-0.9 3.3-0.5 1.5-1 2.6-0.5 1.1-1 1.9-0.6 0.8-1.1 1.2-0.2 0.1-0.6 0.2-0.3 0.2-0.8 0.3-0.4 0.1-1 0.3-0.6 0.1-1.2 0.3-0.7 0.2-1.5 0.4zm10.9 0.7l-0.1-0.5q1-0.6 1.9-1.3 0.9-0.6 1.6-1.2 1.3-1 2-1.8 0.8-0.9 0.8-1.4 0-0.1 0-0.1 0-0.1-0.1-0.1-0.4 0.3-0.7 0.4-0.4 0.1-0.8 0.1-0.5 0-1-0.2-0.5-0.2-0.7-0.6-0.3-0.4-0.3-0.9 0-0.4 0.1-0.8 0.1-0.5 0.4-0.9l0.7-1.5q0.6-1.1 1.6-1.1 0.6 0 1.1 0.4 0.4 0.4 0.7 1.3 0.2 0.8 0.2 2.1 0 0.7-0.1 1.4-0.1 0.8-0.4 1.6-0.2 0.8-0.6 1.5-0.4 0.8-1 1.5-0.3 0.2-0.9 0.5-0.5 0.2-1.3 0.5-0.7 0.3-1.5 0.6-0.8 0.3-1.6 0.5z"/><path class="a" d="m190.6 249.5q1.4-2.1 2.9-4.3c0.5 0.7 1.6 2 2.2 2.6q-1 2.2-1.9 4.4-1.7-1.3-3.2-2.7z"/></svg>